<svg width="255" height="194" viewBox="0 0 255 194" fill="none" xmlns="http://www.w3.org/2000/svg">
<path d="M15.9389 193.595C7.07715 193.595 0.0332031 186.551 0.0332031 177.689V16.5873C0.0332031 7.72558 7.07715 6.13501 15.9389 6.13501C24.8006 6.13501 31.8446 7.9528 31.8446 16.5873V193.595H15.9389Z" fill="white"/>
<path d="M15.9389 8.40725C27.3001 8.40725 29.5723 11.8156 29.5723 16.5873V191.323H15.9389C8.4405 191.323 2.30545 185.188 2.30545 177.689V16.5873C2.30545 11.5884 4.57769 8.40725 15.9389 8.40725ZM15.9389 6.13501C7.07715 6.13501 0.0332031 7.9528 0.0332031 16.5873V177.689C0.0332031 186.551 7.07715 193.595 15.9389 193.595H31.8446V16.5873C31.8446 7.72558 24.8006 6.13501 15.9389 6.13501Z" fill="white"/>
<path d="M238.619 193.595H222.713V16.1329C222.713 7.27113 229.757 6.13501 238.619 6.13501C247.48 6.13501 254.524 7.27113 254.524 16.1329V177.916C254.524 186.551 247.48 193.595 238.619 193.595Z" fill="white"/>
<path d="M238.619 8.40725C248.844 8.40725 252.252 10.4523 252.252 16.1329V177.916C252.252 185.415 246.117 191.55 238.619 191.55H224.985V16.1329C224.985 10.225 228.394 8.40725 238.619 8.40725ZM238.619 6.13501C229.757 6.13501 222.713 7.27113 222.713 16.1329V193.822H238.619C247.48 193.822 254.524 186.778 254.524 177.916V16.1329C254.524 7.27113 247.48 6.13501 238.619 6.13501Z" fill="white"/>
<path d="M127.052 117.02L6.84998 29.7663C-0.193974 24.5402 -2.23899 14.5423 2.98716 7.49834C8.21332 0.454389 18.4384 -1.13618 25.7096 4.08998L127.279 77.9378L229.53 3.18108C236.574 -2.04508 246.571 -0.454508 251.798 6.81667C257.024 13.8606 255.433 23.8585 248.162 29.0846L127.052 117.02Z" fill="white"/>
<path d="M238.619 2.27224C242.936 2.27224 247.026 4.31726 249.753 7.95285C254.07 14.0879 252.707 22.4952 246.799 27.0397L127.052 114.294L8.21336 27.9486C2.0783 23.4041 0.487735 14.7696 4.80499 8.86174C7.30446 5.45338 11.6217 3.18114 16.1662 3.18114C19.1201 3.18114 22.074 4.09004 24.3463 5.90783L125.688 79.5285L127.052 80.4374L128.415 79.5285L230.439 4.77171C232.938 3.18114 235.665 2.27224 238.619 2.27224ZM238.619 0C235.438 0 232.029 0.908897 229.302 2.95391L127.052 77.7107L25.4824 3.86281C22.7557 1.81779 19.3473 0.908897 15.939 0.908897C10.94 0.908897 5.94111 3.18114 2.75998 7.4984C-2.23896 14.5423 -0.193938 24.5402 6.85001 29.7664L127.052 117.248L247.935 29.0847C254.979 23.8585 256.569 14.0879 251.57 6.81673C248.389 2.27224 243.618 0 238.619 0Z" fill="white"/>
</svg>
